<svg width="22" height="12" viewBox="0 0 22 12" fill="none" xmlns="http://www.w3.org/2000/svg">
<path d="M21.7071 1.70751L11.7071 11.7075C11.6142 11.8005 11.5039 11.8742 11.3825 11.9246C11.2611 11.9749 11.131 12.0008 10.9996 12.0008C10.8682 12.0008 10.738 11.9749 10.6166 11.9246C10.4952 11.8742 10.385 11.8005 10.2921 11.7075L0.292079 1.70751C0.104439 1.51987 -0.000976562 1.26537 -0.000976562 1.00001C-0.000976562 0.734643 0.104439 0.480147 0.292079 0.292506C0.47972 0.104866 0.734215 -0.000549316 0.999579 -0.000549316C1.26494 -0.000549316 1.51944 0.104866 1.70708 0.292506L10.9996 9.58626L20.2921 0.292506C20.385 0.199596 20.4953 0.125896 20.6167 0.075613C20.7381 0.0253304 20.8682 -0.000549316 20.9996 -0.000549316C21.131 -0.000549316 21.2611 0.0253304 21.3825 0.075613C21.5039 0.125896 21.6142 0.199596 21.7071 0.292506C21.8 0.385416 21.8737 0.495717 21.924 0.61711C21.9743 0.738503 22.0001 0.868612 22.0001 1.00001C22.0001 1.1314 21.9743 1.26151 21.924 1.3829C21.8737 1.5043 21.8 1.6146 21.7071 1.70751Z" fill="white"/>
</svg>
